<svg width="28" height="21" viewBox="0 0 28 21" fill="none" xmlns="http://www.w3.org/2000/svg">
<rect width="28" height="21" rx="4" fill="#DB0000"/>
<path d="M9.244 6.54V15H6.892V11.604H4.024V15H1.672V6.54H4.024V9.72H6.892V6.54H9.244ZM17.478 8.268V15H15.114V14.04C14.914 14.344 14.638 14.592 14.286 14.784C13.934 14.968 13.53 15.06 13.074 15.06C12.29 15.06 11.67 14.804 11.214 14.292C10.766 13.772 10.542 13.068 10.542 12.18V8.268H12.882V11.88C12.882 12.264 12.982 12.568 13.182 12.792C13.39 13.008 13.662 13.116 13.998 13.116C14.342 13.116 14.614 13.008 14.814 12.792C15.014 12.568 15.114 12.264 15.114 11.88V8.268H17.478ZM21.1685 9.204C21.3525 8.884 21.6125 8.636 21.9485 8.46C22.2845 8.276 22.6805 8.184 23.1365 8.184C23.6725 8.184 24.1565 8.324 24.5885 8.604C25.0285 8.884 25.3725 9.284 25.6205 9.804C25.8765 10.324 26.0045 10.932 26.0045 11.628C26.0045 12.324 25.8765 12.936 25.6205 13.464C25.3725 13.984 25.0285 14.384 24.5885 14.664C24.1565 14.944 23.6725 15.084 23.1365 15.084C22.6805 15.084 22.2845 14.996 21.9485 14.82C21.6125 14.636 21.3525 14.384 21.1685 14.064V15H18.8165V6.12H21.1685V9.204ZM23.6165 11.628C23.6165 11.188 23.4965 10.848 23.2565 10.608C23.0245 10.36 22.7365 10.236 22.3925 10.236C22.0485 10.236 21.7565 10.36 21.5165 10.608C21.2845 10.856 21.1685 11.196 21.1685 11.628C21.1685 12.068 21.2845 12.412 21.5165 12.66C21.7565 12.908 22.0485 13.032 22.3925 13.032C22.7365 13.032 23.0245 12.908 23.2565 12.66C23.4965 12.404 23.6165 12.06 23.6165 11.628Z" fill="#1E1E1E"/>
</svg>
