<svg width="89" height="21" viewBox="0 0 89 21" fill="none" xmlns="http://www.w3.org/2000/svg">
<rect x="61" width="28" height="21" rx="4" fill="#DB0000"/>
<path d="M0.384 10.752C0.384 9.92 0.556 9.18 0.9 8.532C1.252 7.876 1.748 7.368 2.388 7.008C3.028 6.64 3.764 6.456 4.596 6.456C5.652 6.456 6.54 6.74 7.26 7.308C7.98 7.868 8.444 8.632 8.652 9.6H6.12C5.968 9.28 5.756 9.036 5.484 8.868C5.22 8.7 4.912 8.616 4.56 8.616C4.016 8.616 3.58 8.812 3.252 9.204C2.932 9.588 2.772 10.104 2.772 10.752C2.772 11.408 2.932 11.932 3.252 12.324C3.58 12.708 4.016 12.9 4.56 12.9C4.912 12.9 5.22 12.816 5.484 12.648C5.756 12.48 5.968 12.236 6.12 11.916H8.652C8.444 12.884 7.98 13.652 7.26 14.22C6.54 14.78 5.652 15.06 4.596 15.06C3.764 15.06 3.028 14.88 2.388 14.52C1.748 14.152 1.252 13.644 0.9 12.996C0.556 12.34 0.384 11.592 0.384 10.752ZM10.9538 7.644C10.5378 7.644 10.2018 7.532 9.94575 7.308C9.69775 7.076 9.57375 6.788 9.57375 6.444C9.57375 6.092 9.69775 5.8 9.94575 5.568C10.2018 5.336 10.5378 5.22 10.9538 5.22C11.3618 5.22 11.6898 5.336 11.9378 5.568C12.1938 5.8 12.3218 6.092 12.3218 6.444C12.3218 6.788 12.1938 7.076 11.9378 7.308C11.6898 7.532 11.3618 7.644 10.9538 7.644ZM12.1178 8.268V15H9.76575V8.268H12.1178ZM17.8612 8.208C18.6372 8.208 19.2532 8.468 19.7092 8.988C20.1652 9.5 20.3932 10.196 20.3932 11.076V15H18.0412V11.388C18.0412 11.004 17.9412 10.704 17.7412 10.488C17.5412 10.264 17.2732 10.152 16.9372 10.152C16.5852 10.152 16.3092 10.264 16.1092 10.488C15.9092 10.704 15.8092 11.004 15.8092 11.388V15H13.4572V8.268H15.8092V9.228C16.0172 8.924 16.2972 8.68 16.6492 8.496C17.0012 8.304 17.4052 8.208 17.8612 8.208ZM28.1157 11.556C28.1157 11.74 28.1037 11.924 28.0797 12.108H23.6277C23.6517 12.476 23.7517 12.752 23.9277 12.936C24.1117 13.112 24.3437 13.2 24.6237 13.2C25.0157 13.2 25.2957 13.024 25.4637 12.672H27.9717C27.8677 13.136 27.6637 13.552 27.3597 13.92C27.0637 14.28 26.6877 14.564 26.2317 14.772C25.7757 14.98 25.2717 15.084 24.7197 15.084C24.0557 15.084 23.4637 14.944 22.9437 14.664C22.4317 14.384 22.0277 13.984 21.7317 13.464C21.4437 12.944 21.2997 12.332 21.2997 11.628C21.2997 10.924 21.4437 10.316 21.7317 9.804C22.0197 9.284 22.4197 8.884 22.9317 8.604C23.4517 8.324 24.0477 8.184 24.7197 8.184C25.3837 8.184 25.9717 8.32 26.4837 8.592C26.9957 8.864 27.3957 9.256 27.6837 9.768C27.9717 10.272 28.1157 10.868 28.1157 11.556ZM25.7157 10.968C25.7157 10.68 25.6197 10.456 25.4277 10.296C25.2357 10.128 24.9957 10.044 24.7077 10.044C24.4197 10.044 24.1837 10.124 23.9997 10.284C23.8157 10.436 23.6957 10.664 23.6397 10.968H25.7157ZM31.4303 9.204C31.6143 8.892 31.8743 8.644 32.2103 8.46C32.5463 8.276 32.9423 8.184 33.3983 8.184C33.9343 8.184 34.4183 8.324 34.8503 8.604C35.2903 8.884 35.6343 9.284 35.8823 9.804C36.1383 10.324 36.2663 10.932 36.2663 11.628C36.2663 12.324 36.1383 12.936 35.8823 13.464C35.6343 13.984 35.2903 14.384 34.8503 14.664C34.4183 14.944 33.9343 15.084 33.3983 15.084C32.9423 15.084 32.5463 14.992 32.2103 14.808C31.8823 14.624 31.6223 14.376 31.4303 14.064V18.216H29.0783V8.268H31.4303V9.204ZM33.8783 11.628C33.8783 11.188 33.7583 10.848 33.5183 10.608C33.2863 10.36 32.9983 10.236 32.6543 10.236C32.3103 10.236 32.0183 10.36 31.7783 10.608C31.5463 10.856 31.4303 11.196 31.4303 11.628C31.4303 12.068 31.5463 12.412 31.7783 12.66C32.0183 12.908 32.3103 13.032 32.6543 13.032C32.9983 13.032 33.2863 12.908 33.5183 12.66C33.7583 12.404 33.8783 12.06 33.8783 11.628ZM41.6625 8.208C42.4305 8.208 43.0385 8.468 43.4865 8.988C43.9425 9.5 44.1705 10.196 44.1705 11.076V15H41.8185V11.388C41.8185 11.004 41.7185 10.704 41.5185 10.488C41.3185 10.264 41.0505 10.152 40.7145 10.152C40.3625 10.152 40.0865 10.264 39.8865 10.488C39.6865 10.704 39.5865 11.004 39.5865 11.388V15H37.2345V6.12H39.5865V9.228C39.7945 8.924 40.0745 8.68 40.4265 8.496C40.7865 8.304 41.1985 8.208 41.6625 8.208ZM46.6491 7.644C46.2331 7.644 45.8971 7.532 45.6411 7.308C45.3931 7.076 45.2691 6.788 45.2691 6.444C45.2691 6.092 45.3931 5.8 45.6411 5.568C45.8971 5.336 46.2331 5.22 46.6491 5.22C47.0571 5.22 47.3851 5.336 47.6331 5.568C47.8891 5.8 48.0171 6.092 48.0171 6.444C48.0171 6.788 47.8891 7.076 47.6331 7.308C47.3851 7.532 47.0571 7.644 46.6491 7.644ZM47.8131 8.268V15H45.4611V8.268H47.8131ZM51.5045 6.12V15H49.1525V6.12H51.5045ZM59.2759 11.556C59.2759 11.74 59.2639 11.924 59.2399 12.108H54.7879C54.8119 12.476 54.9119 12.752 55.0879 12.936C55.2719 13.112 55.5039 13.2 55.7839 13.2C56.1759 13.2 56.4559 13.024 56.6239 12.672H59.1319C59.0279 13.136 58.8239 13.552 58.5199 13.92C58.2239 14.28 57.8479 14.564 57.3919 14.772C56.9359 14.98 56.4319 15.084 55.8799 15.084C55.2159 15.084 54.6239 14.944 54.1039 14.664C53.5919 14.384 53.1879 13.984 52.8919 13.464C52.6039 12.944 52.4599 12.332 52.4599 11.628C52.4599 10.924 52.6039 10.316 52.8919 9.804C53.1799 9.284 53.5799 8.884 54.0919 8.604C54.6119 8.324 55.2079 8.184 55.8799 8.184C56.5439 8.184 57.1319 8.32 57.6439 8.592C58.1559 8.864 58.5559 9.256 58.8439 9.768C59.1319 10.272 59.2759 10.868 59.2759 11.556ZM56.8759 10.968C56.8759 10.68 56.7799 10.456 56.5879 10.296C56.3959 10.128 56.1559 10.044 55.8679 10.044C55.5799 10.044 55.3439 10.124 55.1599 10.284C54.9759 10.436 54.8559 10.664 54.7999 10.968H56.8759Z" fill="white"/>
<path d="M70.244 6.54V15H67.892V11.604H65.024V15H62.672V6.54H65.024V9.72H67.892V6.54H70.244ZM78.478 8.268V15H76.114V14.04C75.914 14.344 75.638 14.592 75.286 14.784C74.934 14.968 74.53 15.06 74.074 15.06C73.29 15.06 72.67 14.804 72.214 14.292C71.766 13.772 71.542 13.068 71.542 12.18V8.268H73.882V11.88C73.882 12.264 73.982 12.568 74.182 12.792C74.39 13.008 74.662 13.116 74.998 13.116C75.342 13.116 75.614 13.008 75.814 12.792C76.014 12.568 76.114 12.264 76.114 11.88V8.268H78.478ZM82.1685 9.204C82.3525 8.884 82.6125 8.636 82.9485 8.46C83.2845 8.276 83.6805 8.184 84.1365 8.184C84.6725 8.184 85.1565 8.324 85.5885 8.604C86.0285 8.884 86.3725 9.284 86.6205 9.804C86.8765 10.324 87.0045 10.932 87.0045 11.628C87.0045 12.324 86.8765 12.936 86.6205 13.464C86.3725 13.984 86.0285 14.384 85.5885 14.664C85.1565 14.944 84.6725 15.084 84.1365 15.084C83.6805 15.084 83.2845 14.996 82.9485 14.82C82.6125 14.636 82.3525 14.384 82.1685 14.064V15H79.8165V6.12H82.1685V9.204ZM84.6165 11.628C84.6165 11.188 84.4965 10.848 84.2565 10.608C84.0245 10.36 83.7365 10.236 83.3925 10.236C83.0485 10.236 82.7565 10.36 82.5165 10.608C82.2845 10.856 82.1685 11.196 82.1685 11.628C82.1685 12.068 82.2845 12.412 82.5165 12.66C82.7565 12.908 83.0485 13.032 83.3925 13.032C83.7365 13.032 84.0245 12.908 84.2565 12.66C84.4965 12.404 84.6165 12.06 84.6165 11.628Z" fill="#1E1E1E"/>
</svg>
